<svg width="513" height="513" viewBox="0 0 513 513" fill="none" xmlns="http://www.w3.org/2000/svg">
<rect x="1" y="1" width="512" height="512" rx="75" fill="#8534EE"/>
<path d="M137.567 371V367.75L144.392 365.15C151.325 362.333 154.792 356.808 154.792 348.575V178.925C154.792 170.258 151.325 164.733 144.392 162.35L137.567 159.75V156.5H223.367C246.334 156.5 266.05 160.833 282.517 169.5C299.2 177.95 311.984 190.192 320.867 206.225C329.967 222.042 334.517 241.108 334.517 263.425C334.517 286.175 329.642 305.567 319.892 321.6C310.142 337.633 296.492 349.875 278.942 358.325C261.609 366.775 241.134 371 217.517 371H137.567ZM203.542 364.5H217.517C233.117 364.5 245.684 361.467 255.217 355.4C264.75 349.117 271.684 338.717 276.017 324.2C280.567 309.467 282.842 289.317 282.842 263.75C282.842 238.183 280.567 218.142 276.017 203.625C271.684 188.892 264.859 178.492 255.542 172.425C246.225 166.142 233.984 163 218.817 163H203.542V364.5Z" fill="white"/>
<path d="M376.896 375.875C369.096 375.875 362.488 373.167 357.071 367.75C351.655 362.333 348.946 355.833 348.946 348.25C348.946 340.667 351.655 334.058 357.071 328.425C362.488 322.792 369.096 319.975 376.896 319.975C384.696 319.975 391.305 322.792 396.721 328.425C402.138 334.058 404.846 340.667 404.846 348.25C404.846 355.833 402.138 362.333 396.721 367.75C391.305 373.167 384.696 375.875 376.896 375.875Z" fill="#E8AA00"/>
</svg>
