<?xml version="1.0" encoding="UTF-8"?> <svg xmlns="http://www.w3.org/2000/svg" xmlns:xlink="http://www.w3.org/1999/xlink" id="Layer_1" viewBox="0 0 160 49"><defs><style>.cls-1{fill:none;}.cls-2{fill:url(#linear-gradient-7);}.cls-3{fill:url(#linear-gradient-5);}.cls-4{fill:url(#linear-gradient-6);}.cls-5{fill:url(#linear-gradient-4);}.cls-6{fill:url(#linear-gradient-3);}.cls-7{fill:url(#linear-gradient-2);}.cls-8{fill:url(#linear-gradient);}.cls-9{clip-path:url(#clippath);}</style><clipPath id="clippath"><rect class="cls-1" width="160" height="48.15"></rect></clipPath><linearGradient id="linear-gradient" x1="115.52" y1="46.66" x2="115.52" y2=".61" gradientTransform="translate(0 50) scale(1 -1)" gradientUnits="userSpaceOnUse"><stop offset="0" stop-color="#2bdfc9"></stop><stop offset=".5" stop-color="#8299e6"></stop><stop offset="1" stop-color="#ff8179"></stop></linearGradient><linearGradient id="linear-gradient-2" x1="14.97" y1="46.66" x2="14.97" y2=".61" gradientTransform="translate(0 50) scale(1 -1)" gradientUnits="userSpaceOnUse"><stop offset="0" stop-color="#2bdfc9"></stop><stop offset=".5" stop-color="#8299e6"></stop><stop offset="1" stop-color="#ff8179"></stop></linearGradient><linearGradient id="linear-gradient-3" x1="44.96" y1="46.66" x2="44.96" y2=".61" gradientTransform="translate(0 50) scale(1 -1)" gradientUnits="userSpaceOnUse"><stop offset="0" stop-color="#2bdfc9"></stop><stop offset=".5" stop-color="#8299e6"></stop><stop offset="1" stop-color="#ff8179"></stop></linearGradient><linearGradient id="linear-gradient-4" x1="95.08" y1="46.66" x2="95.08" y2=".61" gradientTransform="translate(0 50) scale(1 -1)" gradientUnits="userSpaceOnUse"><stop offset="0" stop-color="#2bdfc9"></stop><stop offset=".5" stop-color="#8299e6"></stop><stop offset="1" stop-color="#ff8179"></stop></linearGradient><linearGradient id="linear-gradient-5" x1="115.49" y1="50" x2="115.49" y2=".61" gradientTransform="translate(0 50) scale(1 -1)" gradientUnits="userSpaceOnUse"><stop offset="0" stop-color="#2bdfc9"></stop><stop offset=".5" stop-color="#8299e6"></stop><stop offset="1" stop-color="#ff8179"></stop></linearGradient><linearGradient id="linear-gradient-6" x1="141.29" y1="46.66" x2="141.29" y2=".61" gradientTransform="translate(0 50) scale(1 -1)" gradientUnits="userSpaceOnUse"><stop offset="0" stop-color="#2bdfc9"></stop><stop offset=".5" stop-color="#8299e6"></stop><stop offset="1" stop-color="#ff8179"></stop></linearGradient><linearGradient id="linear-gradient-7" x1="71.58" y1="46.66" x2="71.58" y2=".61" gradientTransform="translate(0 50) scale(1 -1)" gradientUnits="userSpaceOnUse"><stop offset="0" stop-color="#2bdfc9"></stop><stop offset=".5" stop-color="#8299e6"></stop><stop offset="1" stop-color="#ff8179"></stop></linearGradient></defs><g class="cls-9"><path class="cls-8" d="M115.53,2.66c-2.22-.05-3.39,2.62-1.81,4.17.48.47,1.14.72,1.81.7h.1c1.36-.02,2.45-1.13,2.43-2.49.02-1.37-1.16-2.41-2.53-2.38Z"></path><path class="cls-7" d="M25.8,3.83C23.04,1.54,19.26.39,14.45.39H0v39.31h5.3v-13.46c6.87-.17,15.27,1.1,20.49-3.44,5.52-4.19,5.52-14.76,0-18.96h0ZM21.98,19.48c-1.77,1.43-4.33,2.15-7.68,2.14H5.3V4.99h9.01c3.35,0,5.91.72,7.68,2.15,3.54,2.6,3.54,9.75,0,12.35h0Z"></path><path class="cls-6" d="M54.43,15.85c-3.78-5.16-11.88-5.65-17.11-2.7-9.22,4.91-9.2,20.13,0,25.05,5.34,3.02,13.61,2.4,17.32-2.97v4.47h4.86V11.62h-5.07v4.23h0ZM49.87,34.31c-1.47.83-3.13,1.27-4.82,1.25-5.54.08-9.59-4.41-9.48-9.9-.1-5.54,3.91-9.94,9.48-9.85,1.68-.02,3.35.4,4.82,1.22,6.18,3.33,6.14,13.94,0,17.29h0Z"></path><path class="cls-5" d="M86.84,15.59V.39h-5.09v39.31h5.09v-14.47c0-3,.79-5.3,2.38-6.91,2.59-2.92,9.45-3.37,12.13-.35,1.31,1.38,1.96,3.43,1.96,6.14v15.58h5.09v-16.16c0-3.99-1.05-7.02-3.15-9.08-4.45-4.55-14.4-4.09-18.41,1.14h0Z"></path><path class="cls-3" d="M118.03,11.62h-5.09v28.08h5.09V11.62Z"></path><path class="cls-4" d="M155.03,11.57l-8.79,20.37-8.89-20.37h-9.79v-2.44c0-3.28,1.52-4.93,4.55-4.93,1.42-.01,2.8.45,3.92,1.31l1.54-3.87c-3.41-2.51-9.83-2.1-12.56.79-1.62,1.62-2.44,3.83-2.44,6.62v30.58h5.1V15.76h6.25l9.62,21.74-.9,1.96c-.67,1.59-1.42,2.71-2.25,3.36-2.37,1.79-6.04,1-8.15-1.08l-2.17,3.81c1.77,1.79,4.65,2.6,7.21,2.6,5.24-.1,7.82-2.68,10.01-7.79l12.7-28.79h-4.97Z"></path><path class="cls-2" d="M73.54,35.72c-1.41,0-2.5-.41-3.26-1.22-.76-.81-1.14-1.98-1.14-3.49v-15.2h8.06v-4.18h-8.05v-6.14h-5.09v25.75c0,2.83.78,5,2.33,6.51,1.55,1.52,3.74,2.28,6.57,2.28,1.15,0,2.29-.17,3.39-.5,1.01-.29,1.95-.79,2.75-1.46l-1.59-3.65c-1.13.89-2.54,1.36-3.97,1.31h0Z"></path></g></svg> 