<?xml version="1.0" encoding="UTF-8" standalone="no"?>
<svg
   width="126"
   height="34"
   viewBox="0 0 126 34"
   fill="none"
   version="1.1"
   id="svg18"
   sodipodi:docname="5ef5480befd39255d5acf56b_Group 3 Copy.svg"
   inkscape:export-filename="5ef5480befd39255d5acf56b_Group 3 Copy.png"
   inkscape:export-xdpi="96"
   inkscape:export-ydpi="96"
   xmlns:inkscape="http://www.inkscape.org/namespaces/inkscape"
   xmlns:sodipodi="http://sodipodi.sourceforge.net/DTD/sodipodi-0.dtd"
   xmlns="http://www.w3.org/2000/svg"
   xmlns:svg="http://www.w3.org/2000/svg">
  <defs
     id="defs18" />
  <sodipodi:namedview
     id="namedview18"
     pagecolor="#505050"
     bordercolor="#ffffff"
     borderopacity="1"
     inkscape:showpageshadow="0"
     inkscape:pageopacity="0"
     inkscape:pagecheckerboard="1"
     inkscape:deskcolor="#505050">
    <inkscape:page
       x="0"
       y="0"
       width="126"
       height="34"
       id="page2"
       margin="0"
       bleed="0" />
  </sodipodi:namedview>
  <path
     fill-rule="evenodd"
     clip-rule="evenodd"
     d="m 29.0755,17.2936 -6.6741,1.1195 -0.2036,0.0342 c -1.685,0.2825 -2.6075,2.141 -1.8227,3.672 L 25.92,32.9384 c 0.0931,0.1817 0.2269,0.3388 0.391,0.4591 l 0.0353,0.026 c 1.0203,0.747 2.3921,-0.2593 2.0025,-1.4693 L 25.243,22.3064 c -0.2513,-0.7798 0.0238,-1.634 0.6812,-2.1161 l 3.3378,-2.4475 c 0.2114,-0.1551 0.0715,-0.4925 -0.1865,-0.4492 z"
     fill="#f9e300"
     id="path1" />
  <path
     fill-rule="evenodd"
     clip-rule="evenodd"
     d="M 9.22215,22.0654 7.96494,25.9432 C 7.8853,26.189 8.19061,26.375 8.37175,26.191 l 4.82415,-4.9095 c 1.1817,-1.2027 0.8504,-3.2109 -0.6549,-3.9681 L 1.90431,11.9632 C 1.72566,11.8734 1.52875,11.8265 1.3288,11.8265 H 1.28594 c -1.2433781,0 -1.760253,1.5947 -0.754434,2.3273 L 8.5504,19.9929 c 0.64824,0.472 0.91926,1.3089 0.67175,2.0725 z"
     fill="#f9e300"
     id="path2" />
  <path
     fill-rule="evenodd"
     clip-rule="evenodd"
     d="m 18.8419,23.3429 c -0.7724,-1.5302 -2.7711,-1.8413 -3.9492,-0.6147 l -8.32473,8.6669 c -0.13983,0.1456 -0.24471,0.3228 -0.3061,0.5173 l -0.01321,0.0419 c -0.38235,1.2102 0.96454,2.2169 1.9657,1.4687 l 7.98174,-5.9638 c 0.6452,-0.4822 1.5189,-0.4822 2.1641,0 l 3.2757,2.4477 c 0.2078,0.1551 0.4773,-0.0835 0.359,-0.318 z"
     fill="#f9e300"
     id="path3" />
  <path
     fill-rule="evenodd"
     clip-rule="evenodd"
     d="m 33.4804,11.8343 h -9.9763 c -0.8063,0 -1.5208,-0.5312 -1.7702,-1.3153 L 20.4689,6.53705 C 20.3885,6.28458 20.0303,6.31475 19.9916,6.57746 l -0.9872,6.70444 -0.0432,0.2923 c -0.2524,1.714 1.2027,3.1819 2.8752,2.9004 l 11.8183,-1.9902 c 0.1984,-0.0333 0.3866,-0.1138 0.5491,-0.2345 l 0.0351,-0.0262 c 1.0128,-0.7514 0.4929,-2.3894 -0.7585,-2.3894 z"
     fill="#f9e300"
     id="path4" />
  <mask
     id="mask0"
     mask-type="alpha"
     maskUnits="userSpaceOnUse"
     x="6"
     y="0"
     width="13"
     height="16">
    <path
       fill-rule="evenodd"
       clip-rule="evenodd"
       d="M 6.81982,0 H 18.6594 V 15.6237 H 6.81982 Z"
       fill="#ffffff"
       id="path5" />
  </mask>
  <g
     mask="url(#mask0)"
     id="g6">
    <path
       fill-rule="evenodd"
       clip-rule="evenodd"
       d="m 6.95752,12.2352 6.10848,3.0507 0.1397,0.0699 c 1.5309,0.7646 3.3628,-0.1839 3.6202,-1.874 L 18.6445,1.54008 C 18.6752,1.33939 18.6583,1.13448 18.5956,0.941356 L 18.5822,0.900093 c -0.3906,-1.200264 -2.0902,-1.199984 -2.4805,0 L 12.9893,10.468 c -0.2515,0.7736 -0.9728,1.2971 -1.7872,1.2971 H 7.06852 c -0.26218,0 -0.34536,0.3531 -0.111,0.4701 z"
       fill="#f9e300"
       id="path6" />
  </g>
  <path
     fill-rule="evenodd"
     clip-rule="evenodd"
     d="m 11.9779,8.50949 c 0,-0.96991 -0.7784,-1.75607 -1.7387,-1.75607 -0.96031,0 -1.73871,0.78616 -1.73871,1.75607 0,0.96991 0.7784,1.75611 1.73871,1.75611 0.9603,0 1.7387,-0.7862 1.7387,-1.75611 z"
     fill="#f9e300"
     id="path7" />
  <path
     fill-rule="evenodd"
     clip-rule="evenodd"
     d="m 26.2738,8.50949 c 0,-0.96991 -0.7784,-1.75607 -1.7387,-1.75607 -0.9603,0 -1.7387,0.78616 -1.7387,1.75607 0,0.96991 0.7784,1.75611 1.7387,1.75611 0.9603,0 1.7387,-0.7862 1.7387,-1.75611 z"
     fill="#f9e300"
     id="path8" />
  <path
     fill-rule="evenodd"
     clip-rule="evenodd"
     d="m 30.5243,22.1678 c 0,-0.9699 -0.7784,-1.7561 -1.7387,-1.7561 -0.9603,0 -1.7387,0.7862 -1.7387,1.7561 0,0.9699 0.7784,1.7561 1.7387,1.7561 0.9603,0 1.7387,-0.7862 1.7387,-1.7561 z"
     fill="#f9e300"
     id="path9" />
  <path
     fill-rule="evenodd"
     clip-rule="evenodd"
     d="m 18.9325,30.7531 c 0,-0.9699 -0.7784,-1.756 -1.7387,-1.756 -0.9603,0 -1.7387,0.7861 -1.7387,1.756 0,0.97 0.7784,1.7561 1.7387,1.7561 0.9603,0 1.7387,-0.7861 1.7387,-1.7561 z"
     fill="#f9e300"
     id="path10" />
  <path
     fill-rule="evenodd"
     clip-rule="evenodd"
     d="m 7.34121,22.1678 c 0,-0.9699 -0.77839,-1.7561 -1.73872,-1.7561 -0.96032,0 -1.73872,0.7862 -1.73872,1.7561 0,0.9699 0.7784,1.7561 1.73872,1.7561 0.96033,0 1.73872,-0.7862 1.73872,-1.7561 z"
     fill="#f9e300"
     id="path11" />
  <path
     fill-rule="evenodd"
     clip-rule="evenodd"
     d="m 55.6732,17.1884 c -0.8618,-0.5333 -2.0157,-1.0134 -3.4293,-1.4267 -1.3724,-0.4015 -2.3664,-0.817 -2.9543,-1.2356 -0.5567,-0.3958 -0.8271,-0.8718 -0.8271,-1.4552 0,-0.7087 0.25,-1.2437 0.7645,-1.6353 0.5242,-0.3992 1.2816,-0.6019 2.2512,-0.6019 1.0376,0 1.8411,0.2451 2.388,0.7287 0.5487,0.4858 0.7481,1.1231 0.799,1.8063 0.0173,0.2325 0.2147,0.4115 0.4508,0.4115 h 2.6374 c 0.2603,0 0.4702,-0.2164 0.4534,-0.4731 C 58.1445,12.3594 57.8866,11.4623 57.3459,10.649 56.7662,9.77689 55.9587,9.09542 54.9456,8.62424 53.9402,8.15643 52.782,7.91943 51.5032,7.91943 c -1.9292,0 -3.524,0.4844 -4.7399,1.43941 -1.231,0.96656 -1.8553,2.21476 -1.8553,3.71016 0,1.7079 0.8615,3.1088 2.5613,4.1639 0.8692,0.5372 2.0518,1.0306 3.5149,1.4658 1.4195,0.4228 2.4099,0.8431 2.9435,1.2491 0.506,0.3854 0.752,0.9229 0.752,1.6429 0,0.6565 -0.2432,1.169 -0.7432,1.5665 -0.5072,0.4032 -1.2885,0.6078 -2.3221,0.6078 -1.2051,0 -2.1374,-0.2637 -2.7711,-0.7832 -0.634,-0.5198 -0.8675,-1.2249 -0.9232,-1.9876 -0.0168,-0.2314 -0.2162,-0.4082 -0.4508,-0.4082 h -2.6514 c -0.2586,0 -0.4682,0.2139 -0.4528,0.4689 0.0608,1.0034 0.3287,1.9584 0.9349,2.7976 0.6254,0.8667 1.5119,1.5546 2.6351,2.0449 1.1153,0.4864 2.3531,0.7332 3.6793,0.7332 2.0101,0 3.6287,-0.4571 4.8114,-1.3584 1.2002,-0.9137 1.8086,-2.1602 1.8086,-3.7056 0,-0.9461 -0.2093,-1.7855 -0.622,-2.4951 -0.4119,-0.7079 -1.0641,-1.3413 -1.9392,-1.8831 0.8751,0.5418 -0.8618,-0.5333 0,0 0.8751,0.5418 -0.8618,-0.5333 0,0 0.8751,0.5418 -0.8618,-0.5333 0,0 0.8751,0.5418 -0.8618,-0.5333 0,0 0.8751,0.5418 -0.8618,-0.5333 0,0 z"
     fill="white"
     id="path12"
     style="fill:#000000" />
  <path
     fill-rule="evenodd"
     clip-rule="evenodd"
     d="m 64.4832,23.7457 c -0.4596,0 -0.7745,-0.0896 -0.9356,-0.2666 -0.1674,-0.1838 -0.2524,-0.5056 -0.2524,-0.9568 v -7.1928 h 1.9346 c 0.2535,0 0.459,-0.2009 0.459,-0.4486 V 13.151 c 0,-0.2481 -0.2055,-0.449 -0.459,-0.449 H 63.2952 V 9.92732 c 0,-0.24773 -0.2055,-0.44868 -0.4587,-0.44868 h -2.5584 c -0.2533,0 -0.4588,0.20095 -0.4588,0.44868 V 22.6325 c 0,2.6532 1.2529,3.9981 3.7243,3.9981 0.6342,0 1.2557,-0.0953 1.8683,-0.2424 0.2063,-0.0496 0.3518,-0.2294 0.3518,-0.4371 v -1.8325 c 0,-0.2785 -0.2565,-0.4887 -0.5371,-0.4414 -0.2446,0.0414 -0.4913,0.0685 -0.7434,0.0685 z"
     fill="white"
     id="path13"
     style="fill:#000000" />
  <path
     fill-rule="evenodd"
     clip-rule="evenodd"
     d="m 74.1966,20.2229 v 2.2128 c -0.2447,0.4186 -0.6077,0.759 -1.0792,1.0124 -0.4928,0.2645 -1.0262,0.3987 -1.5849,0.3987 -0.5908,0 -1.0646,-0.1515 -1.4084,-0.4506 -0.3418,-0.2972 -0.508,-0.6887 -0.508,-1.1974 0,-0.6287 0.2467,-1.1006 0.755,-1.4424 0.5257,-0.3541 1.3356,-0.5335 2.4074,-0.5335 z m 1.9347,-6.4175 c -0.9744,-0.8017 -2.2911,-1.2082 -3.9135,-1.2082 -1.0626,0 -2.041,0.1853 -2.9074,0.5511 -0.8729,0.3689 -1.5745,0.8868 -2.0848,1.5397 -0.442,0.5651 -0.6775,1.1837 -0.7523,1.859 -0.0292,0.2646 0.1813,0.4965 0.4541,0.4965 h 2.5567 c 0.2271,0 0.4116,-0.1664 0.4452,-0.3851 0.0561,-0.3672 0.2111,-0.6801 0.5515,-0.9396 0.3999,-0.3047 0.9256,-0.4593 1.5625,-0.4593 0.7317,0 1.2783,0.1839 1.625,0.5464 0.3555,0.3722 0.5283,0.8595 0.5283,1.4901 v 0.6532 h -1.6425 c -2.0218,0 -3.6044,0.3907 -4.7039,1.1617 -1.1214,0.7863 -1.69,1.9273 -1.69,3.3912 0,1.1645 0.4555,2.1559 1.3539,2.9462 0.8922,0.7844 2.0556,1.1823 3.4577,1.1823 1.3124,0 2.4553,-0.4228 3.4027,-1.2577 0.0559,0.2562 0.1263,0.5029 0.2255,0.7414 0.0693,0.1663 0.238,0.2735 0.4223,0.2735 h 2.1742 c 0.2518,0 0.4561,-0.199 0.4561,-0.4445 v -8.7238 c -0.0261,-1.4557 -0.5378,-2.6043 -1.5213,-3.4141 0.9835,0.8098 -0.9744,-0.8017 0,0 0.9835,0.8098 -0.9744,-0.8017 0,0 0.9835,0.8098 -0.9744,-0.8017 0,0 0.9835,0.8098 -0.9744,-0.8017 0,0 z"
     fill="white"
     id="path14"
     style="fill:#000000" />
  <path
     fill-rule="evenodd"
     clip-rule="evenodd"
     d="m 85.4774,12.5972 c -1.1683,0 -2.1297,0.4486 -2.8657,1.3348 l -0.0331,-0.6579 c -0.0121,-0.2408 -0.2132,-0.4299 -0.457,-0.4299 h -2.426 c -0.2529,0 -0.4578,0.2025 -0.4578,0.4521 v 12.8822 c 0,0.2496 0.2049,0.4521 0.4578,0.4521 h 2.5516 c 0.253,0 0.4579,-0.2025 0.4579,-0.4521 v -8.852 c 0.4541,-0.9521 1.3042,-1.415 2.5973,-1.415 0.3187,0 0.6337,0.0239 0.9476,0.0622 0.2744,0.0335 0.5173,-0.1746 0.5173,-0.4475 v -2.3651 c 0,-0.1979 -0.129,-0.3768 -0.3213,-0.4325 -0.313,-0.0908 -0.6326,-0.1314 -0.9686,-0.1314 z"
     fill="white"
     id="path15"
     style="fill:#000000" />
  <path
     fill-rule="evenodd"
     clip-rule="evenodd"
     d="m 97.6084,13.6749 c 0,0.8627 -0.2666,1.521 -0.8148,2.0123 -0.5477,0.4905 -1.3278,0.7389 -2.3185,0.7389 h -2.9854 v -5.5763 h 3.0685 c 1.0216,0.0153 1.7946,0.2686 2.2973,0.752 0.4996,0.4811 0.7529,1.1784 0.7529,2.0731 z m 0.3342,4.8428 c 0.9644,-0.4433 1.7352,-1.062 2.2934,-1.8425 0.601,-0.8407 0.906,-1.8942 0.906,-3.1309 0,-1.813 -0.593,-3.2216 -1.7614,-4.18635 C 98.2242,8.40337 96.5697,7.91943 94.463,7.91943 h -6.0568 c -0.2486,0 -0.4501,0.20127 -0.4501,0.45002 V 25.7908 c 0,0.2485 0.2015,0.45 0.4501,0.45 h 2.6334 c 0.2485,0 0.4501,-0.2015 0.4501,-0.45 v -6.4342 h 3.1282 l 3.4641,6.6422 c 0.0775,0.1487 0.2316,0.242 0.3992,0.242 h 2.8938 c 0.342,0 0.559,-0.3646 0.396,-0.6645 z"
     fill="white"
     id="path16"
     style="fill:#000000" />
  <path
     fill-rule="evenodd"
     clip-rule="evenodd"
     d="m 118.964,23.4497 6.634,-8.5134 c 0.089,-0.1146 0.138,-0.2543 0.138,-0.3979 v -1.2817 c 0,-0.3642 -0.305,-0.6595 -0.68,-0.6595 h -9.961 c -0.255,0 -0.461,0.2003 -0.461,0.4473 v 1.9205 c 0,0.2473 0.206,0.4477 0.461,0.4477 h 6.11 l -6.56,8.4279 c -0.089,0.1144 -0.137,0.254 -0.137,0.3974 v 1.3432 c 0,0.3642 0.304,0.6596 0.68,0.6596 h 10.351 c 0.255,0 0.461,-0.2004 0.461,-0.4474 v -1.8963 c 0,-0.247 -0.206,-0.4474 -0.461,-0.4474 z"
     fill="white"
     id="path17"
     style="fill:#000000" />
  <path
     fill-rule="evenodd"
     clip-rule="evenodd"
     d="m 110.622,18.0981 h -5.658 c 0.132,-0.6797 0.357,-1.2349 0.668,-1.6529 0.532,-0.7143 1.231,-1.0614 2.136,-1.0614 0.922,0 1.631,0.353 2.167,1.0788 0.325,0.4401 0.556,0.9893 0.687,1.6355 z m -2.854,-5.5009 c -1.237,0 -2.349,0.2897 -3.306,0.8609 -0.959,0.5729 -1.713,1.402 -2.241,2.4654 -0.525,1.0558 -0.791,2.2565 -0.791,3.569 v 0.1459 c 0,2.0988 0.583,3.8055 1.733,5.0727 1.155,1.2736 2.713,1.9195 4.63,1.9195 1.254,0 2.377,-0.2917 3.337,-0.8672 0.735,-0.44 1.36,-1.0428 1.83,-1.755 0.325,-0.4913 0.56,-1.0192 0.748,-1.5685 0.1,-0.2914 -0.117,-0.5949 -0.427,-0.5949 h -2.401 c -0.179,0 -0.34,0.1062 -0.413,0.2689 -0.183,0.4102 -0.405,0.8021 -0.746,1.1073 -0.522,0.4665 -1.261,0.6523 -1.951,0.6337 -0.928,-0.0062 -1.63,-0.3525 -2.149,-1.0588 -0.391,-0.5316 -0.64,-1.2337 -0.744,-2.089 h 8.568 c 0.361,0 0.661,-0.2861 0.666,-0.6447 0.011,-0.9412 -0.102,-1.9117 -0.331,-2.8084 -0.307,-1.2044 -0.922,-2.2877 -1.813,-3.1608 -1.106,-0.9926 -2.519,-1.496 -4.199,-1.496 z"
     fill="white"
     id="path18"
     style="fill:#000000" />
</svg>
